<?xml version="1.0" encoding="utf-8"?>
<!-- Generator: Adobe Illustrator 22.0.1, SVG Export Plug-In . SVG Version: 6.00 Build 0)  -->
<svg version="1.1" id="_x2014_ÎÓÈ_x5F_1" xmlns="http://www.w3.org/2000/svg" xmlns:xlink="http://www.w3.org/1999/xlink"
	 x="0px" y="0px" width="500px" height="500px" viewBox="0 0 500 500" style="enable-background:new 0 0 500 500;"
	 xml:space="preserve">
<style type="text/css">
	.st0{opacity:0.5;}
	.st1{fill:#D6D6D6;}
	.st2{fill:#FFFFFF;}
	.st3{fill:#595959;}
	.st4{fill:#C6C5C9;}
	.st5{fill:#7286A6;}
	.st6{fill:#47AFE3;}
	.st7{opacity:0.3;fill:#103754;enable-background:new    ;}
	.st8{opacity:0.3;}
	.st9{fill:#103754;}
	.st10{fill:#E1F0FC;}
	.st11{fill:#FF9827;}
	.st12{fill:#0D619A;}
	.st13{fill:#EEEFF7;}
	.st14{fill:#272236;}
	.st15{fill:#76B5B1;}
	.st16{fill:#A0A8AB;}
	.st17{fill:url(#SVGID_1_);}
	.st18{fill:#DCE7EB;}
	.st19{fill:#494065;}
	.st20{fill:#6B6387;}
	.st21{fill:#2C273D;}
</style>
<g class="st0">
	<path class="st1" d="M248,441.5c-2.6,0-5.3-0.1-7.9-0.2l0.1-2c2.6,0.1,5.2,0.2,7.8,0.2h0.4v2H248z M254.2,441.4l-0.1-2
		c2.6-0.1,5.2-0.2,7.8-0.4l0.2,2C259.5,441.1,256.9,441.3,254.2,441.4z M234.1,440.9c-2.6-0.2-5.3-0.5-7.9-0.8l0.2-1.9
		c2.6,0.3,5.2,0.6,7.8,0.8L234.1,440.9z M268,440.4l-0.2-1.9c2.6-0.3,5.2-0.6,7.7-1l0.3,1.9C273.3,439.7,270.7,440.1,268,440.4z
		 M220.4,439.4c-2.6-0.4-5.2-0.9-7.8-1.4l0.4-1.9c2.5,0.5,5.1,1,7.7,1.4L220.4,439.4z M281.7,438.3l-0.4-1.9c2.6-0.5,5.1-1,7.6-1.6
		l0.5,1.9C286.9,437.3,284.3,437.8,281.7,438.3z M206.8,436.7c-2.6-0.6-5.1-1.3-7.7-2l0.5-1.9c2.5,0.7,5,1.4,7.6,1.9L206.8,436.7z
		 M295.2,435.2l-0.5-1.9c2.5-0.7,5-1.4,7.5-2.2l0.6,1.9C300.3,433.8,297.7,434.5,295.2,435.2z M193.5,433.1c-2.5-0.8-5-1.7-7.5-2.6
		l0.7-1.8c2.4,0.9,4.9,1.7,7.4,2.5L193.5,433.1z M308.4,431.1l-0.7-1.8c2.4-0.9,4.9-1.8,7.3-2.8l0.7,1.8
		C313.3,429.2,310.9,430.2,308.4,431.1z M180.4,428.4c-2.4-1-4.9-2-7.3-3.1l0.8-1.8c2.4,1.1,4.8,2.1,7.2,3.1L180.4,428.4z
		 M321.2,425.9l-0.8-1.8c2.4-1.1,4.7-2.2,7.1-3.3l0.9,1.8C326,423.7,323.6,424.9,321.2,425.9z M167.8,422.7c-2.4-1.2-4.7-2.4-7-3.7
		l0.9-1.7c2.3,1.3,4.6,2.5,6.9,3.6L167.8,422.7z M333.6,419.8l-0.9-1.7c2.3-1.2,4.6-2.5,6.8-3.9l1,1.7
		C338.2,417.3,335.9,418.6,333.6,419.8z M155.6,416c-2.3-1.3-4.5-2.8-6.7-4.2l1.1-1.6c2.2,1.4,4.4,2.8,6.6,4.2L155.6,416z
		 M345.5,412.8l-1.1-1.6c2.2-1.4,4.3-2.9,6.5-4.4l1.1,1.6C349.9,409.9,347.7,411.4,345.5,412.8z M144,408.5
		c-2.2-1.5-4.3-3.1-6.4-4.7l1.2-1.6c2,1.6,4.2,3.1,6.3,4.7L144,408.5z M356.8,404.9l-1.2-1.6c2.1-1.6,4.1-3.2,6.1-4.9l1.3,1.5
		C361,401.7,358.9,403.3,356.8,404.9z M133,400.1c-2-1.7-4-3.4-6-5.2l1.3-1.5c1.9,1.7,3.9,3.5,5.9,5.1L133,400.1z M367.5,396.1
		l-1.3-1.5c1.9-1.7,3.9-3.5,5.7-5.3l1.4,1.4C371.4,392.6,369.5,394.4,367.5,396.1z M122.7,390.9c-1.9-1.8-3.8-3.7-5.6-5.6l1.4-1.4
		c1.8,1.9,3.6,3.7,5.5,5.5L122.7,390.9z M377.5,386.6l-1.4-1.4c1.8-1.9,3.6-3.8,5.3-5.7l1.5,1.3
		C381.1,382.8,379.3,384.7,377.5,386.6z M113.1,380.9c-1.7-1.9-3.5-4-5.1-6l1.5-1.2c1.6,2,3.4,4,5.1,5.9L113.1,380.9z M386.8,376.3
		l-1.5-1.3c1.7-2,3.3-4.1,4.9-6.1l1.6,1.2C390.1,372.2,388.4,374.3,386.8,376.3z M104.3,370.3c-1.6-2.1-3.1-4.2-4.7-6.4l1.6-1.1
		c1.5,2.1,3,4.3,4.6,6.3L104.3,370.3z M395.2,365.3l-1.6-1.1c1.5-2.1,3-4.3,4.4-6.5l1.6,1.1C398.2,361,396.7,363.2,395.2,365.3z
		 M96.3,359c-1.4-2.2-2.8-4.5-4.2-6.7l1.7-1c1.3,2.2,2.7,4.5,4.1,6.6L96.3,359z M402.8,353.8l-1.7-1c1.4-2.2,2.7-4.5,3.9-6.8
		l1.7,0.9C405.5,349.2,404.2,351.5,402.8,353.8z M89.3,347.1c-1.3-2.3-2.5-4.6-3.6-7l1.8-0.9c1.1,2.3,2.4,4.7,3.6,6.9L89.3,347.1z
		 M409.5,341.6l-1.8-0.9c1.2-2.4,2.3-4.7,3.4-7.1l1.8,0.8C411.8,336.9,410.7,339.3,409.5,341.6z M83.1,334.7
		c-1.1-2.4-2.1-4.8-3.1-7.3l1.8-0.7c1,2.4,2,4.8,3,7.2L83.1,334.7z M415.2,329l-1.8-0.7c1-2.4,1.9-4.9,2.8-7.3l1.8,0.7
		C417.2,324.1,416.2,326.6,415.2,329z M77.9,321.9c-0.9-2.5-1.7-5-2.5-7.5l1.9-0.6c0.8,2.5,1.6,5,2.5,7.4L77.9,321.9z M420,316
		l-1.9-0.6c0.8-2.5,1.5-5,2.2-7.5l1.9,0.5C421.5,310.9,420.8,313.5,420,316z M73.7,308.8c-0.7-2.5-1.3-5.1-1.9-7.7l1.9-0.4
		c0.6,2.5,1.2,5.1,1.9,7.6L73.7,308.8z M423.7,302.7l-1.9-0.5c0.6-2.5,1.2-5.1,1.6-7.6l1.9,0.4C424.9,297.5,424.3,300.1,423.7,302.7
		z M70.6,295.3c-0.5-2.6-0.9-5.2-1.3-7.8l1.9-0.3c0.4,2.6,0.8,5.2,1.3,7.7L70.6,295.3z M426.4,289.1l-1.9-0.3c0.4-2.6,0.8-5.2,1-7.7
		l1.9,0.2C427.1,283.9,426.8,286.5,426.4,289.1z M68.5,281.6c-0.3-2.6-0.5-5.3-0.7-7.9l2-0.1c0.2,2.6,0.4,5.2,0.7,7.8L68.5,281.6z
		 M428,275.4l-2-0.2c0.2-2.6,0.4-5.2,0.5-7.8l2,0.1C428.4,270.1,428.2,272.7,428,275.4z M67.4,267.8c-0.1-2.3-0.1-4.7-0.1-7v-0.9h2
		v0.9c0,2.3,0,4.6,0.1,6.9L67.4,267.8z M428.6,261.5h-2v-0.7c0-2.3,0-4.7-0.1-7.1l2-0.1c0.1,2.4,0.1,4.8,0.1,7.2V261.5z M69.4,254.1
		l-2-0.1c0.1-2.6,0.3-5.3,0.5-7.9l2,0.2C69.6,248.9,69.5,251.5,69.4,254.1z M426.2,247.9c-0.2-2.6-0.4-5.2-0.7-7.8l1.9-0.2
		c0.3,2.6,0.5,5.2,0.7,7.9L426.2,247.9z M70.4,240.4l-1.9-0.2c0.3-2.6,0.7-5.2,1.1-7.8l1.9,0.3C71.1,235.2,70.7,237.9,70.4,240.4z
		 M424.7,234.3c-0.4-2.5-0.8-5.1-1.3-7.7l1.9-0.4c0.5,2.6,1,5.2,1.3,7.8L424.7,234.3z M72.5,226.9l-1.9-0.4c0.5-2.6,1.1-5.2,1.7-7.7
		l1.9,0.5C73.5,221.8,73,224.4,72.5,226.9z M422.1,220.8c-0.6-2.5-1.2-5.1-1.9-7.6l1.9-0.5c0.7,2.5,1.4,5.1,1.9,7.7L422.1,220.8z
		 M75.6,213.6l-1.9-0.5c0.7-2.5,1.5-5.1,2.3-7.6l1.9,0.6C77,208.5,76.3,211.1,75.6,213.6z M418.5,207.6c-0.8-2.5-1.6-5-2.5-7.4
		l1.8-0.7c0.9,2.5,1.7,5,2.5,7.5L418.5,207.6z M79.7,200.5l-1.8-0.7c0.9-2.5,1.8-5,2.8-7.4l1.8,0.7
		C81.6,195.6,80.6,198.1,79.7,200.5z M414,194.7c-0.9-2.4-2-4.8-3.1-7.2l1.8-0.8c1.1,2.4,2.1,4.8,3.1,7.3L414,194.7z M84.9,187.8
		l-1.8-0.8c1.1-2.4,2.2-4.8,3.4-7.1l1.8,0.9C87.1,183.1,85.9,185.5,84.9,187.8z M408.4,182.3c-1.1-2.3-2.3-4.6-3.6-6.9l1.7-0.9
		c1.3,2.3,2.5,4.7,3.6,7L408.4,182.3z M91,175.5l-1.7-0.9c1.2-2.3,2.6-4.6,3.9-6.9l1.7,1C93.5,171,92.2,173.3,91,175.5z
		 M401.9,170.2c-1.3-2.2-2.7-4.5-4.1-6.6l1.6-1.1c1.4,2.2,2.8,4.5,4.2,6.7L401.9,170.2z M98,163.8l-1.6-1.1c1.4-2.2,2.9-4.4,4.5-6.5
		l1.6,1.1C100.9,159.4,99.4,161.6,98,163.8z M394.5,158.7c-1.5-2.1-3-4.2-4.6-6.3l1.6-1.2c1.6,2.1,3.2,4.2,4.7,6.4L394.5,158.7z
		 M105.9,152.6l-1.6-1.2c1.6-2.1,3.2-4.2,4.9-6.2l1.5,1.3C109.1,148.5,107.4,150.5,105.9,152.6z M386.3,147.8c-1.6-2-3.4-4-5.1-5.9
		l1.5-1.3c1.7,2,3.5,4,5.1,6L386.3,147.8z M114.6,142l-1.5-1.3c1.8-2,3.6-3.9,5.4-5.8l1.4,1.4C118.1,138.1,116.3,140.1,114.6,142z
		 M377.2,137.6c-1.8-1.9-3.6-3.7-5.5-5.5l1.4-1.4c1.9,1.8,3.8,3.7,5.6,5.6L377.2,137.6z M124.1,132.2l-1.4-1.4
		c1.9-1.8,3.9-3.6,5.8-5.4l1.3,1.5C127.9,128.6,126,130.4,124.1,132.2z M367.4,128.1c-1.9-1.7-3.9-3.5-5.9-5.1l1.2-1.5
		c2,1.7,4,3.4,6,5.2L367.4,128.1z M134.3,123.1l-1.2-1.5c2-1.7,4.1-3.3,6.2-4.9l1.2,1.6C138.3,119.8,136.3,121.4,134.3,123.1z
		 M356.9,119.3c-2-1.6-4.2-3.1-6.3-4.6l1.1-1.6c2.2,1.5,4.3,3.1,6.4,4.7L356.9,119.3z M145.1,114.7l-1.1-1.6c2.1-1.5,4.3-3,6.5-4.4
		l1.1,1.7C149.4,111.8,147.3,113.3,145.1,114.7z M345.7,111.3c-2.2-1.4-4.4-2.8-6.6-4.2l1-1.7c2.3,1.3,4.5,2.8,6.7,4.2L345.7,111.3z
		 M156.6,107.3l-1-1.7c2.2-1.3,4.5-2.6,6.9-3.9l0.9,1.7C161.1,104.7,158.8,106,156.6,107.3z M334,104.3c-2.3-1.3-4.6-2.5-6.9-3.6
		l0.9-1.8c2.4,1.2,4.7,2.4,7,3.7L334,104.3z M168.6,100.7l-0.9-1.8c2.3-1.2,4.7-2.3,7.1-3.4l0.8,1.8
		C173.3,98.5,170.9,99.6,168.6,100.7z M321.8,98.1c-2.4-1.1-4.8-2.1-7.2-3.1l0.7-1.8c2.4,1,4.9,2,7.3,3.1L321.8,98.1z M181,95.1
		l-0.7-1.8c2.4-1,4.9-1.9,7.4-2.8l0.7,1.8C185.9,93.2,183.4,94.2,181,95.1z M309.1,92.9c-2.4-0.9-4.9-1.7-7.4-2.5l0.6-1.9
		c2.5,0.8,5,1.6,7.5,2.6L309.1,92.9z M193.9,90.5l-0.6-1.9c2.5-0.8,5-1.5,7.6-2.2l0.5,1.9C198.9,89,196.3,89.7,193.9,90.5z
		 M296,88.7c-2.5-0.7-5-1.3-7.6-1.9l0.4-1.9c2.6,0.6,5.1,1.3,7.7,2L296,88.7z M207.1,86.9l-0.4-1.9c2.5-0.6,5.1-1.1,7.7-1.6l0.4,1.9
		C212.2,85.7,209.6,86.3,207.1,86.9z M282.7,85.5c-2.5-0.5-5.1-1-7.7-1.4l0.3-1.9c2.6,0.4,5.2,0.9,7.8,1.4L282.7,85.5z M220.5,84.2
		l-0.3-1.9c2.6-0.4,5.2-0.8,7.8-1l0.2,1.9C225.7,83.5,223.1,83.9,220.5,84.2z M269.2,83.4c-2.6-0.3-5.2-0.6-7.8-0.8l0.1-2
		c2.6,0.2,5.3,0.5,7.9,0.8L269.2,83.4z M234.1,82.7l-0.1-2c2.6-0.2,5.3-0.3,7.9-0.4l0.1,2C239.3,82.3,236.7,82.5,234.1,82.7z
		 M255.6,82.3c-2.5-0.1-5.1-0.2-7.6-0.2l-0.1-1.3l0.1-0.6c2.6,0,5.2,0.1,7.7,0.2L255.6,82.3z"/>
</g>
<g>
	<g>
		<rect x="356.8" y="143.7" class="st2" width="114" height="77"/>
		<path class="st3" d="M470.5,141.3H355.9c-2.4,0-4.2,1.9-4.2,4.4v78.9h123v-78.9C474.7,143.3,472.9,141.3,470.5,141.3z M469,219.3
			H358.1v-73.2H469V219.3z"/>
		<polygon class="st4" points="335.7,230.2 339.7,232.8 486.7,232.8 490.7,230.2 		"/>
		<path class="st4" d="M334.1,224.6v2.1c0,2.4,1.9,4.3,4.2,4.3h149.9c2.3,0,4.2-1.9,4.2-4.3v-2.1H334.1z"/>
		<path class="st5" d="M431.1,227.8c0,0.5-0.4,0.9-0.8,0.9h-33.8c-0.4,0-0.8-0.4-0.8-0.9l0,0c0-0.5,0.4-0.9,0.8-0.9h33.8
			C430.7,226.9,431.1,227.3,431.1,227.8L431.1,227.8z"/>
		<rect x="371.8" y="158.7" class="st6" width="80.7" height="43.5"/>
		<rect x="371.8" y="207.6" class="st7" width="80.7" height="0.9"/>
		<rect x="371.8" y="209.4" class="st7" width="80.7" height="0.9"/>
		<rect x="371.8" y="211.1" class="st7" width="80.7" height="0.9"/>
		<rect x="371.8" y="212.8" class="st7" width="80.7" height="0.9"/>
		<g class="st8">
			<g>
				<path class="st9" d="M372.5,152.5h0.2v1.2h0.6v0.1h-0.7v-1.3H372.5z"/>
				<path class="st9" d="M373.8,152.8c0.2,0,0.5,0.2,0.5,0.5s-0.2,0.5-0.5,0.5c-0.2,0-0.4-0.2-0.4-0.5S373.6,152.8,373.8,152.8z
					 M373.8,153.7c0.2,0,0.3-0.1,0.3-0.4c0-0.2-0.1-0.4-0.3-0.4c-0.2,0-0.3,0.2-0.3,0.4C373.6,153.6,373.7,153.7,373.8,153.7z"/>
				<path class="st9" d="M374.5,152.8h0.1v0.2l0,0c0.1-0.1,0.2-0.2,0.3-0.2h0.1v0.1h-0.1c-0.1,0-0.2,0.1-0.2,0.2v0.6h-0.2
					L374.5,152.8L374.5,152.8z"/>
				<path class="st9" d="M375.6,152.8c0.2,0,0.4,0.2,0.4,0.5v0.1h-0.7c0,0.2,0.1,0.3,0.3,0.3c0.1,0,0.2,0,0.2-0.1l0.1,0.1
					c-0.1,0.1-0.2,0.1-0.3,0.1c-0.3,0-0.5-0.2-0.5-0.5C375.1,153,375.4,152.8,375.6,152.8z M375.8,153.3c0-0.2-0.1-0.3-0.2-0.3
					s-0.3,0.1-0.3,0.3H375.8z"/>
				<path class="st9" d="M376.2,152.8h0.1v0.1l0,0c0.1-0.1,0.2-0.2,0.3-0.2c0.1,0,0.2,0.1,0.3,0.2c0.1-0.1,0.2-0.2,0.3-0.2
					c0.2,0,0.3,0.1,0.3,0.4v0.6h-0.2v-0.6c0-0.2-0.1-0.3-0.2-0.3s-0.2,0-0.2,0.2v0.7h-0.2v-0.6c0-0.2-0.1-0.3-0.2-0.3
					s-0.2,0-0.2,0.2v0.7h-0.2v-0.9H376.2z"/>
				<path class="st9" d="M378.2,152.5c0-0.1,0.1-0.1,0.1-0.1c0.1,0,0.1,0,0.1,0.1s-0.1,0.1-0.1,0.1
					C378.3,152.6,378.2,152.6,378.2,152.5z M378.3,152.8h0.2v1h-0.2V152.8z"/>
				<path class="st9" d="M378.9,153.9v0.3h-0.2v-1.4h0.1v0.1l0,0c0.1-0.1,0.2-0.1,0.3-0.1c0.3,0,0.4,0.2,0.4,0.5s-0.2,0.5-0.4,0.5
					c-0.1,0-0.2,0-0.3-0.1v0.2H378.9z M379.2,153.7c0.2,0,0.3-0.1,0.3-0.4c0-0.2-0.1-0.4-0.3-0.4c-0.1,0-0.2,0-0.3,0.1v0.5
					C379,153.7,379.1,153.7,379.2,153.7z"/>
				<path class="st9" d="M379.8,153.6c0.1,0.1,0.2,0.1,0.3,0.1c0.1,0,0.2-0.1,0.2-0.2c0-0.1-0.1-0.1-0.2-0.2
					c-0.1-0.1-0.3-0.1-0.3-0.3s0.1-0.3,0.3-0.3c0.1,0,0.2,0.1,0.3,0.1l-0.1,0.1c-0.1,0-0.1-0.1-0.2-0.1s-0.2,0.1-0.2,0.1
					c0,0.1,0.1,0.1,0.2,0.2c0.1,0.1,0.3,0.1,0.3,0.3s-0.1,0.3-0.4,0.3c-0.1,0-0.3-0.1-0.4-0.1L379.8,153.6z"/>
				<path class="st9" d="M380.7,152.8h0.2v0.6c0,0.2,0.1,0.3,0.2,0.3s0.2-0.1,0.3-0.2v-0.7h0.2v1h-0.1v-0.1l0,0
					c-0.1,0.1-0.2,0.2-0.3,0.2c-0.2,0-0.3-0.1-0.3-0.4v-0.7H380.7z"/>
				<path class="st9" d="M381.8,152.8h0.1v0.1l0,0c0.1-0.1,0.2-0.2,0.3-0.2c0.1,0,0.2,0.1,0.3,0.2c0.1-0.1,0.2-0.2,0.3-0.2
					c0.2,0,0.3,0.1,0.3,0.4v0.6H383v-0.6c0-0.2-0.1-0.3-0.2-0.3s-0.2,0-0.2,0.2v0.7h-0.2v-0.6c0-0.2-0.1-0.3-0.2-0.3s-0.2,0-0.2,0.2
					v0.7h-0.2L381.8,152.8L381.8,152.8z"/>
				<path class="st9" d="M384.2,152.8c0.1,0,0.2,0,0.3,0.1v-0.2v-0.4h0.2v1.4h-0.1v-0.1l0,0c-0.1,0.1-0.2,0.1-0.3,0.1
					c-0.2,0-0.4-0.2-0.4-0.5C383.8,153,384,152.8,384.2,152.8z M384.2,153.7c0.1,0,0.2,0,0.2-0.1v-0.5c-0.1-0.1-0.2-0.1-0.2-0.1
					c-0.2,0-0.3,0.1-0.3,0.4C384,153.6,384.1,153.7,384.2,153.7z"/>
				<path class="st9" d="M385.3,152.8c0.2,0,0.5,0.2,0.5,0.5s-0.2,0.5-0.5,0.5c-0.2,0-0.5-0.2-0.5-0.5
					C384.9,153,385.1,152.8,385.3,152.8z M385.3,153.7c0.2,0,0.3-0.1,0.3-0.4c0-0.2-0.1-0.4-0.3-0.4c-0.2,0-0.3,0.2-0.3,0.4
					C385.1,153.6,385.2,153.7,385.3,153.7z"/>
				<path class="st9" d="M386,152.4h0.2v1.2c0,0.1,0,0.1,0,0.1l0,0v0.1h-0.1c-0.1,0-0.2-0.1-0.2-0.2v-1.2H386z"/>
				<path class="st9" d="M386.9,152.8c0.2,0,0.4,0.2,0.4,0.5s-0.2,0.5-0.4,0.5c-0.2,0-0.5-0.2-0.5-0.5
					C386.5,153,386.7,152.8,386.9,152.8z M386.9,153.7c0.2,0,0.3-0.1,0.3-0.4c0-0.2-0.1-0.4-0.3-0.4c-0.2,0-0.3,0.2-0.3,0.4
					C386.7,153.6,386.8,153.7,386.9,153.7z"/>
				<path class="st9" d="M387.6,152.8h0.1v0.2l0,0c0.1-0.1,0.2-0.2,0.3-0.2h0.1v0.1H388c-0.1,0-0.2,0.1-0.2,0.2v0.6h-0.2
					L387.6,152.8L387.6,152.8z"/>
			</g>
		</g>
		<rect x="416.8" y="152.4" class="st7" width="15" height="1.4"/>
		<rect x="437.4" y="152.4" class="st7" width="15" height="1.4"/>
		<g>
			<rect x="379.4" y="187.2" class="st10" width="5.2" height="11.3"/>
			<rect x="387.1" y="182.1" class="st10" width="5.2" height="16.4"/>
			<rect x="394.9" y="191.2" class="st10" width="5.2" height="7.3"/>
			<rect x="402.6" y="173.7" class="st10" width="5.2" height="24.8"/>
			<rect x="410.4" y="179.5" class="st10" width="5.3" height="18.9"/>
			<rect x="418.1" y="165.9" class="st10" width="5.2" height="32.6"/>
			<rect x="425.9" y="187.2" class="st10" width="5.2" height="11.3"/>
			<rect x="433.7" y="181.3" class="st10" width="5.3" height="17.2"/>
			<rect x="441.4" y="173.7" class="st10" width="5.2" height="24.8"/>
		</g>
	</g>
	<g>
		<path class="st11" d="M410.5,177.4c-16.7-12.4-27.7-31.8-29.4-51.9l-0.6-5.4l5.2,0.1c0.4,0,0.8,0,1.2,0c12.1,0,16.7-2.3,22.5-11
			l3.8-5.7l3.8,5.7c5.8,8.7,10.5,11,22.5,11c0.4,0,0.8,0,1.2,0l5.2-0.1l-0.6,5.4c-1.7,20.1-12.7,39.5-29.4,51.9l-2.7,2L410.5,177.4z
			"/>
		<path class="st12" d="M413.2,111.7c-7,10.5-13.4,13.2-27.6,13v0.3c1.4,16.9,10.1,35.7,27.6,48.7c17.5-12.9,26.2-31.8,27.6-48.7
			v-0.3C426.6,124.9,420.3,122.3,413.2,111.7z"/>
		<path class="st2" d="M413,112.1c-7,10.3-13.3,12.8-27.4,12.7v0.3c0.4,4.7,1.4,9.6,2.9,14.5H413V112.1z"/>
		<path class="st2" d="M412.7,139.5v33.8c0.2,0.1,0.3,0.2,0.5,0.4c12.6-9.3,20.6-21.7,24.6-34.2H412.7z"/>
	</g>
</g>
<g>
	<circle class="st6" cx="154.1" cy="412.1" r="36.3"/>
	<g>
		<path class="st13" d="M167.2,400.7v-4c0-5.5-4.5-10-10-10h-6.9c-5.5,0-10,4.5-10,10v4c-2.8,0.1-5,2.4-5,5.3v17.2
			c0,2.9,2.4,5.3,5.3,5.3h26.5c2.9,0,5.3-2.4,5.3-5.3V406C172.2,403.1,170,400.8,167.2,400.7z M150.3,389.2h6.9
			c4.1,0,7.5,3.4,7.5,7.5v4h-21.9v-4C142.8,392.6,146.1,389.2,150.3,389.2z"/>
		<path class="st14" d="M156.4,411.4c0-1.5-1.2-2.7-2.7-2.7s-2.7,1.2-2.7,2.7c0,1.1,0.6,2,1.5,2.4v5.5h2.5v-5.5
			C155.8,413.4,156.4,412.5,156.4,411.4z"/>
	</g>
</g>
<g>
	<g>
		<path class="st13" d="M169.9,141.4c-2.9-2.1-6.4-3.5-10.1-4.1c-2-17.8-17.2-31.7-35.5-31.7c-11.5,0-21.6,5.4-28.2,13.7
			c-2.3-0.8-4.8-1.2-7.3-1.2c-11.8,0-21.4,8.8-22.8,20.2c-9.7,3-16.8,12.1-16.8,22.8c0,13.1,10.6,23.8,23.7,23.9
			c0.7,0.1,1.4,0.1,2.1,0.1h78c1.4,0.3,2.9,0.4,4.4,0.4c13.2,0,23.9-10.7,23.9-23.9C181.3,153.1,176.7,145.6,169.9,141.4z"/>
		<g>
			<path class="st12" d="M116.2,172.9c-13,0-23.7-10.6-23.7-23.7c0-13,10.6-23.7,23.7-23.7c13,0,23.7,10.6,23.7,23.7
				C139.8,162.3,129.2,172.9,116.2,172.9z M116.2,127.5c-12,0-21.7,9.7-21.7,21.7s9.7,21.7,21.7,21.7s21.7-9.7,21.7-21.7
				C137.9,137.3,128.1,127.5,116.2,127.5z"/>
		</g>
		<g>
			<path class="st6" d="M93.5,149.2c1.4,2.6,3.6,5.7,5.7,7.6l-4.8-1l-4.3,2.3C91.6,155.7,92.8,152.1,93.5,149.2z"/>
		</g>
		<path class="st6" d="M116.2,172.9c13,0,23.7-10.6,23.7-23.7c0-1.7-0.2-3.3-0.5-4.8l-1.9,0.4c0.3,1.4,0.5,2.9,0.5,4.5
			c0,12-9.7,21.7-21.7,21.7c-10.8,0-19.8-7.9-21.4-18.3l-1.9,0.4C94.6,164.3,104.4,172.9,116.2,172.9z"/>
	</g>
	<g>
		<path class="st12" d="M138.8,149.2c-1.4-2.6-3.6-5.7-5.8-7.6l4.8,1l4.3-2.3C140.7,142.7,139.5,146.3,138.8,149.2z"/>
	</g>
</g>
<g>
	<g>
		<g>
			<path class="st12" d="M429.8,390.2c0,2.9-2.3,5.2-5.2,5.2h-59.8c-2.9,0-5.2-2.3-5.2-5.2v-44.6c0-2.9,2.3-5.2,5.2-5.2h59.8
				c2.9,0,5.2,2.3,5.2,5.2V390.2z"/>
			<rect x="363.3" y="350.8" class="st11" width="62.6" height="40.8"/>
			<path class="st2" d="M418.4,345.8c0,0.7-0.5,1.2-1.2,1.2s-1.2-0.5-1.2-1.2s0.5-1.2,1.2-1.2C417.8,344.6,418.4,345.1,418.4,345.8z
				"/>
			<path class="st2" d="M421.9,345.8c0,0.7-0.5,1.2-1.2,1.2s-1.2-0.5-1.2-1.2s0.5-1.2,1.2-1.2S421.9,345.1,421.9,345.8z"/>
			<path class="st2" d="M425.5,345.8c0,0.7-0.5,1.2-1.2,1.2s-1.2-0.5-1.2-1.2s0.5-1.2,1.2-1.2C425,344.6,425.5,345.1,425.5,345.8z"
				/>
		</g>
		<path class="st6" d="M379.6,345.9c0,7.3-5.9,13.2-13.2,13.2c-7.3,0-13.2-5.9-13.2-13.2c0-7.3,5.9-13.2,13.2-13.2
			C373.6,332.7,379.6,338.6,379.6,345.9z"/>
		<g>
			<path class="st13" d="M370.7,343.1v-1.2c0-1.7-1.4-3-3-3h-2.1c-1.7,0-3,1.4-3,3v1.2c-0.8,0-1.5,0.7-1.5,1.6v5.2
				c0,0.9,0.7,1.6,1.6,1.6h8c0.9,0,1.6-0.7,1.6-1.6v-5.2C372.2,343.8,371.5,343.1,370.7,343.1z M365.6,339.6h2.1
				c1.2,0,2.3,1,2.3,2.3v1.2h-6.6v-1.2C363.3,340.7,364.3,339.6,365.6,339.6z"/>
			<path class="st14" d="M367.4,346.3c0-0.5-0.4-0.8-0.8-0.8s-0.8,0.4-0.8,0.8c0,0.3,0.2,0.6,0.5,0.7v1.7h0.7V347
				C367.2,346.9,367.4,346.7,367.4,346.3z"/>
		</g>
	</g>
	<g>
		<g>
			<path class="st13" d="M410.1,370c-0.8-0.6-1.8-1-2.9-1.2c-0.6-5-4.9-9-10.1-9c-3.2,0-6.1,1.5-8,3.9c-0.7-0.2-1.3-0.3-2.1-0.3
				c-3.3,0-6.1,2.5-6.5,5.7c-2.8,0.9-4.8,3.4-4.8,6.5c0,3.7,3,6.7,6.7,6.8c0.2,0,0.4,0,0.6,0h22.1c0.4,0.1,0.8,0.1,1.3,0.1
				c3.7,0,6.8-3,6.8-6.8C413.3,373.3,412.1,371.2,410.1,370z"/>
		</g>
	</g>
</g>
<g>
	<circle class="st6" cx="246.2" cy="82.6" r="36.3"/>
	<g>
		<path class="st2" d="M260.5,58.9H232c-2,0-3.6,1.6-3.6,3.6v2.6c0,2,1.6,3.6,3.6,3.6h28.5c2,0,3.6-1.6,3.6-3.6v-2.6
			C264.1,60.5,262.5,58.9,260.5,58.9z M232.4,65.3c-0.8,0-1.5-0.7-1.5-1.5s0.7-1.5,1.5-1.5c0.8,0.1,1.5,0.7,1.5,1.5
			S233.2,65.3,232.4,65.3z"/>
		<path class="st2" d="M260.5,69.5H232c-2,0-3.6,1.6-3.6,3.6v2.6c0,2,1.6,3.6,3.6,3.6h28.5c2,0,3.6-1.6,3.6-3.6v-2.6
			C264.1,71.1,262.5,69.5,260.5,69.5z M232.4,75.9c-0.8,0-1.5-0.7-1.5-1.5c0-0.8,0.7-1.5,1.5-1.5c0.8,0.1,1.5,0.7,1.5,1.5
			C233.9,75.2,233.2,75.9,232.4,75.9z"/>
		<path class="st2" d="M260.5,80.2H232c-2,0-3.6,1.6-3.6,3.6v2.6c0,2,1.6,3.6,3.6,3.6h28.5c2,0,3.6-1.6,3.6-3.6v-2.6
			C264.1,81.8,262.5,80.2,260.5,80.2z M232.4,86.6c-0.8,0-1.5-0.7-1.5-1.5c0-0.8,0.7-1.5,1.5-1.5c0.8,0,1.5,0.7,1.5,1.5
			C233.9,85.9,233.2,86.6,232.4,86.6z"/>
		<rect x="244.2" y="90.6" class="st2" width="4.1" height="10.9"/>
		<rect x="240.1" y="102.2" class="st2" width="12.3" height="4.1"/>
		<rect x="222.6" y="103.1" class="st2" width="47.2" height="2.2"/>
	</g>
</g>
<g>
	<g>
		<path class="st3" d="M116.1,293.9v-60.2c0-1.8-1.3-3.3-3.2-3.3H13.1c-1.8,0-3.2,1.5-3.2,3.3v60.2H116.1z"/>
		<rect x="14" y="234.1" class="st15" width="96.9" height="56.1"/>
		<path class="st16" d="M48.1,317.2L48.1,317.2c0-0.6,0.1-0.7,0.7-0.7l30.4-0.1c0.7,0.2,0.8,0.3,0.8,0.9l0,0
			C80.1,319.4,48.1,319.5,48.1,317.2z"/>
		
			<linearGradient id="SVGID_1_" gradientUnits="userSpaceOnUse" x1="64.0007" y1="184.9283" x2="64.0007" y2="194.4998" gradientTransform="matrix(1 0 0 -1 0 500)">
			<stop  offset="0" style="stop-color:#D5E0E3"/>
			<stop  offset="0.2884" style="stop-color:#D5E0E3"/>
			<stop  offset="0.4257" style="stop-color:#FFFFFF"/>
			<stop  offset="0.9809" style="stop-color:#D5E0E3"/>
		</linearGradient>
		<path class="st17" d="M74.3,311.7c-0.5-0.8-0.8-5.8-0.9-7H54.6c-0.1,1.1-0.4,6.2-0.9,7c-0.6,0.9-5.6,4.7-5.6,5.1
			c0,0.6,8,0.9,15.9,0.9c8,0,15.9-0.3,15.9-0.9C80,316.4,74.9,312.6,74.3,311.7z"/>
		<path class="st18" d="M9.9,293.9v7.5c0,1.8,2.4,3.6,4.1,3.6h99.3c1.7,0,2.8-1.7,2.8-3.6v-7.5H9.9z"/>
	</g>
	<g>
		<g>
			<rect x="51.6" y="250.7" class="st2" width="41" height="7.4"/>
			<g>
				<g>
					<path class="st19" d="M52.5,244.8h0.4v3.1h1.5v0.4h-1.9V244.8z"/>
					<path class="st19" d="M55.9,245.6c0.6,0,1.2,0.5,1.2,1.3s-0.6,1.3-1.2,1.3c-0.6,0-1.2-0.5-1.2-1.3S55.3,245.6,55.9,245.6z
						 M55.9,247.9c0.4,0,0.7-0.4,0.7-1s-0.3-1-0.7-1s-0.7,0.4-0.7,1S55.5,247.9,55.9,247.9z"/>
					<path class="st19" d="M57.9,248.1L57.9,248.1c-0.1-0.1-0.2-0.2-0.2-0.4s0.1-0.4,0.3-0.5l0,0c-0.2-0.1-0.3-0.4-0.3-0.7
						c0-0.6,0.4-0.9,0.9-0.9c0.1,0,0.3,0,0.4,0.1h0.9v0.3h-0.5c0.1,0.1,0.2,0.3,0.2,0.5c0,0.5-0.4,0.9-0.9,0.9c-0.1,0-0.3,0-0.4-0.1
						c-0.1,0.1-0.2,0.2-0.2,0.3c0,0.2,0.1,0.3,0.4,0.3H59c0.6,0,0.9,0.2,0.9,0.6c0,0.5-0.5,0.9-1.3,0.9c-0.6,0-1-0.2-1-0.7
						C57.5,248.5,57.7,248.3,57.9,248.1z M58.6,249.1c0.5,0,0.8-0.3,0.8-0.5s-0.2-0.3-0.5-0.3h-0.4c-0.1,0-0.2,0-0.3,0
						c-0.2,0.1-0.3,0.3-0.3,0.4C57.9,248.9,58.2,249.1,58.6,249.1z M59.1,246.5c0-0.4-0.2-0.6-0.5-0.6s-0.5,0.2-0.5,0.6
						c0,0.4,0.2,0.6,0.5,0.6C58.9,247.1,59.1,246.9,59.1,246.5z"/>
					<path class="st19" d="M60.3,244.9c0-0.2,0.1-0.3,0.3-0.3s0.3,0.1,0.3,0.3s-0.1,0.3-0.3,0.3C60.4,245.1,60.3,245,60.3,244.9z
						 M60.3,245.7h0.4v2.5h-0.4V245.7z"/>
					<path class="st19" d="M61.6,245.7H62v0.4l0,0c0.2-0.2,0.5-0.4,0.8-0.4c0.5,0,0.8,0.3,0.8,1v1.6h-0.4v-1.6
						c0-0.5-0.1-0.7-0.5-0.7c-0.3,0-0.4,0.1-0.7,0.4v1.8h-0.4C61.6,248.2,61.6,245.7,61.6,245.7z"/>
				</g>
			</g>
			<rect x="51.6" y="268.4" class="st2" width="41" height="7.4"/>
			<g>
				<g>
					<path class="st19" d="M52.5,262.5h1c0.8,0,1.3,0.3,1.3,1s-0.5,1.1-1.3,1.1h-0.6v1.4h-0.4V262.5z M53.5,264.2
						c0.6,0,0.9-0.2,0.9-0.7s-0.3-0.7-0.9-0.7h-0.6v1.4L53.5,264.2L53.5,264.2z"/>
					<path class="st19" d="M56.7,264.3c0-0.3-0.1-0.6-0.5-0.6c-0.3,0-0.6,0.1-0.8,0.3l-0.2-0.3c0.2-0.2,0.6-0.3,1-0.3
						c0.6,0,0.9,0.4,0.9,1v1.6h-0.4v-0.3l0,0c-0.2,0.2-0.5,0.4-0.8,0.4c-0.4,0-0.7-0.3-0.7-0.7C55.1,264.7,55.6,264.5,56.7,264.3z
						 M56,265.7c0.2,0,0.4-0.1,0.7-0.3v-0.7c-0.8,0.1-1.1,0.3-1.1,0.6C55.5,265.6,55.7,265.7,56,265.7z"/>
					<path class="st19" d="M57.8,265.4c0.2,0.2,0.4,0.3,0.7,0.3s0.5-0.2,0.5-0.4c0-0.3-0.3-0.4-0.6-0.5c-0.4-0.1-0.7-0.3-0.7-0.7
						c0-0.4,0.3-0.7,0.9-0.7c0.3,0,0.6,0.1,0.8,0.3l-0.2,0.3c-0.2-0.1-0.4-0.2-0.6-0.2c-0.3,0-0.5,0.2-0.5,0.4
						c0,0.2,0.3,0.3,0.6,0.4c0.4,0.1,0.8,0.3,0.8,0.8c0,0.4-0.3,0.8-0.9,0.8c-0.4,0-0.7-0.2-0.9-0.4L57.8,265.4z"/>
					<path class="st19" d="M60,265.4c0.2,0.2,0.4,0.3,0.7,0.3s0.5-0.2,0.5-0.4c0-0.3-0.3-0.4-0.6-0.5c-0.4-0.1-0.8-0.3-0.8-0.7
						c0-0.4,0.3-0.7,0.9-0.7c0.3,0,0.6,0.1,0.8,0.3l-0.2,0.3c-0.2-0.1-0.4-0.2-0.6-0.2c-0.3,0-0.5,0.2-0.5,0.4
						c0,0.2,0.3,0.3,0.6,0.4c0.4,0.1,0.8,0.3,0.8,0.8c0,0.4-0.3,0.8-0.9,0.8c-0.4,0-0.7-0.2-0.9-0.4L60,265.4z"/>
					<path class="st19" d="M61.9,263.4h0.4l0.4,1.5c0.1,0.2,0.1,0.5,0.1,0.7l0,0c0.1-0.2,0.1-0.5,0.2-0.7l0.4-1.5h0.4l0.4,1.5
						c0.1,0.2,0.1,0.5,0.2,0.7l0,0c0.1-0.2,0.1-0.5,0.2-0.7l0.4-1.5h0.4l-0.7,2.5h-0.5l-0.4-1.4c-0.1-0.2-0.1-0.5-0.2-0.7l0,0
						c-0.1,0.3-0.1,0.5-0.2,0.7l-0.4,1.4h-0.5L61.9,263.4z"/>
					<path class="st19" d="M66.9,263.3c0.6,0,1.2,0.5,1.2,1.3s-0.5,1.3-1.2,1.3c-0.6,0-1.2-0.5-1.2-1.3
						C65.7,263.8,66.3,263.3,66.9,263.3z M66.9,265.7c0.4,0,0.7-0.4,0.7-1s-0.3-1-0.7-1c-0.4,0-0.7,0.4-0.7,1
						C66.2,265.3,66.5,265.7,66.9,265.7z"/>
					<path class="st19" d="M68.7,263.4h0.4v0.5l0,0c0.2-0.3,0.4-0.5,0.7-0.5c0.1,0,0.2,0,0.3,0.1l-0.1,0.4c-0.1,0-0.1,0-0.2,0
						c-0.2,0-0.5,0.2-0.6,0.6v1.6h-0.4v-2.7H68.7z"/>
					<path class="st19" d="M71.4,263.3c0.3,0,0.5,0.1,0.7,0.3v-0.4v-1h0.4v3.7h-0.4v-0.3l0,0c-0.2,0.2-0.5,0.4-0.8,0.4
						c-0.6,0-1-0.5-1-1.3C70.3,263.9,70.8,263.3,71.4,263.3z M71.4,265.7c0.2,0,0.4-0.1,0.6-0.4V264c-0.2-0.2-0.4-0.3-0.6-0.3
						c-0.4,0-0.7,0.4-0.7,1C70.7,265.3,71,265.7,71.4,265.7z"/>
				</g>
			</g>
		</g>
		<g>
			<path class="st6" d="M42.8,260.2c0,4.8-3.8,8.7-8.6,8.7c-4.7,0-8.6-3.9-8.6-8.7c0-4.8,3.8-8.7,8.6-8.7
				C39,251.6,42.8,255.4,42.8,260.2z"/>
			<g>
				<path class="st20" d="M37,258.3h-5.5c-0.2,0-0.3,0.1-0.3,0.3v0.2h6.2v-0.2C37.4,258.4,37.2,258.3,37,258.3z"/>
				<g>
					<path class="st13" d="M35.5,261.3H33c-0.6,0-1.2-0.5-1.2-1.2v-3.4c0-0.7,0.5-1.2,1.2-1.2h2.5c0.7,0,1.2,0.5,1.2,1.2v3.4
						C36.7,260.7,36.2,261.3,35.5,261.3z M33,256.2c-0.3,0-0.5,0.2-0.5,0.5v3.4c0,0.3,0.2,0.5,0.5,0.5h2.5c0.3,0,0.5-0.2,0.5-0.5
						v-3.4c0-0.3-0.2-0.5-0.5-0.5H33z"/>
				</g>
				<path class="st13" d="M31.2,263.4c0,0.2,0.1,0.3,0.3,0.3H37c0.2,0,0.3-0.1,0.3-0.3v-4.6h-6.2v4.6H31.2z"/>
				<path class="st21" d="M34.9,260.4c0-0.4-0.3-0.6-0.6-0.6c-0.4,0-0.6,0.3-0.6,0.6c0,0.2,0.1,0.4,0.2,0.5l-0.1,1.3h1.1l-0.1-1.3
					C34.8,260.8,34.9,260.6,34.9,260.4z"/>
			</g>
		</g>
	</g>
</g>
<path class="st13" d="M302.1,433.6c0,6-4.8,10.8-10.8,10.8s-10.8-4.8-10.8-10.8s4.8-10.8,10.8-10.8
	C297.3,422.8,302.1,427.7,302.1,433.6z"/>
<path class="st6" d="M349.2,102.2c0,8.1-6.6,14.7-14.7,14.7s-14.7-6.6-14.7-14.7s6.6-14.7,14.7-14.7S349.2,94.1,349.2,102.2z"/>
<path class="st11" d="M106,355.2c0,6-4.8,10.8-10.8,10.8s-10.8-4.8-10.8-10.8s4.8-10.8,10.8-10.8C101.2,344.4,106,349.2,106,355.2z"
	/>
<ellipse class="st6" cx="247.9" cy="260.8" rx="120.8" ry="120.8"/>
<g>
	<path class="st13" d="M288.2,233.6v-11.9c0-16.6-13.5-30-30-30h-20.5c-16.6,0-30,13.5-30,30v11.9c-8.4,0.4-15,7.3-15,15.7v51.5
		c0,8.7,7,15.7,15.7,15.7h79.1c8.7,0,15.7-7,15.7-15.7v-51.5C303.2,240.8,296.6,233.9,288.2,233.6z M237.7,199.2h20.5
		c12.4,0,22.4,10,22.4,22.4v11.9h-65.3v-11.9C215.3,209.3,225.3,199.2,237.7,199.2z"/>
	<path class="st14" d="M256.1,265.6c0-4.5-3.7-8.2-8.2-8.2s-8.2,3.7-8.2,8.2c0,3.2,1.8,5.9,4.5,7.3v16.5h7.4v-16.5
		C254.3,271.5,256.1,268.7,256.1,265.6z"/>
</g>
</svg>
