<?xml version="1.0" encoding="utf-8"?>
<!-- Generator: Adobe Illustrator 21.1.0, SVG Export Plug-In . SVG Version: 6.00 Build 0)  -->
<svg version="1.1" id="Layer_1" xmlns="http://www.w3.org/2000/svg" xmlns:xlink="http://www.w3.org/1999/xlink" x="0px" y="0px"
	 viewBox="0 0 266.7 57.7" style="enable-background:new 0 0 266.7 57.7;" xml:space="preserve">
<style type="text/css">
	.st0{enable-background:new    ;}
	.st1{fill:#797979;}
	.st2{fill:#2384C6;}
	.st3{fill:#29BDBD;}
</style>
<g>
	<g>
		<g class="st0">
			<path class="st1" d="M76.1,46.8l1,0.1c-0.3,0.9-0.8,1.6-1.4,2.1s-1.3,0.7-2,0.7c-0.9,0-1.6-0.3-2.1-0.9c-0.5-0.6-0.8-1.4-0.8-2.5
				c0-1.3,0.3-2.4,1-3.3c0.7-1,1.7-1.5,2.8-1.5c0.7,0,1.4,0.2,1.9,0.7s0.8,1,0.9,1.8l-0.9,0.1c-0.2-1.1-0.8-1.7-1.8-1.7
				c-0.9,0-1.6,0.4-2.1,1.2s-0.8,1.7-0.8,2.8c0,0.8,0.2,1.4,0.6,1.9s0.9,0.6,1.4,0.6c0.5,0,0.9-0.2,1.3-0.5
				C75.6,48,75.9,47.5,76.1,46.8z"/>
			<path class="st1" d="M77.9,47.5c0-1,0.3-1.9,0.8-2.6c0.5-0.7,1.2-1.1,2.1-1.1c0.6,0,1.1,0.2,1.5,0.6c0.4,0.4,0.6,1,0.6,1.8
				c0,0.7-0.1,1.3-0.4,1.9c-0.3,0.6-0.6,1-1.1,1.3s-0.9,0.4-1.4,0.4c-0.6,0-1.2-0.2-1.6-0.6C78.1,48.7,77.9,48.2,77.9,47.5z
				 M78.8,47.4c0,0.5,0.1,1,0.4,1.2c0.2,0.3,0.6,0.4,0.9,0.4c0.3,0,0.6-0.1,0.9-0.3c0.3-0.2,0.5-0.5,0.8-1c0.2-0.5,0.3-1,0.3-1.5
				c0-0.5-0.1-1-0.4-1.2c-0.2-0.3-0.5-0.4-0.9-0.4c-0.3,0-0.6,0.1-0.9,0.3c-0.3,0.2-0.5,0.5-0.8,1C78.9,46.3,78.8,46.8,78.8,47.4z"
				/>
			<path class="st1" d="M83.4,49.6l1.1-5.7h0.8l-0.2,1c0.4-0.4,0.7-0.7,1.1-0.9c0.3-0.2,0.6-0.2,0.9-0.2c0.4,0,0.8,0.1,1,0.4
				s0.4,0.6,0.4,1c0,0.2,0,0.5-0.1,1l-0.7,3.5h-0.9l0.8-3.6c0.1-0.4,0.1-0.6,0.1-0.8c0-0.2-0.1-0.4-0.2-0.5
				c-0.1-0.1-0.3-0.2-0.5-0.2c-0.5,0-0.9,0.2-1.3,0.5c-0.4,0.4-0.6,1-0.8,1.9l-0.5,2.7H83.4z"/>
			<path class="st1" d="M89.2,49.6l1.1-5.7h0.8l-0.2,1c0.4-0.4,0.7-0.7,1.1-0.9c0.3-0.2,0.6-0.2,0.9-0.2c0.4,0,0.8,0.1,1,0.4
				s0.4,0.6,0.4,1c0,0.2,0,0.5-0.1,1l-0.7,3.5h-0.9l0.8-3.6c0.1-0.4,0.1-0.6,0.1-0.8c0-0.2-0.1-0.4-0.2-0.5
				c-0.1-0.1-0.3-0.2-0.5-0.2c-0.5,0-0.9,0.2-1.3,0.5c-0.4,0.4-0.6,1-0.8,1.9l-0.5,2.7H89.2z"/>
			<path class="st1" d="M98.9,47.7l0.9,0.1c-0.1,0.6-0.5,1-1,1.5c-0.4,0.3-0.9,0.5-1.5,0.5c-0.4,0-0.7-0.1-1.1-0.3
				c-0.3-0.2-0.6-0.5-0.8-0.8s-0.3-0.8-0.3-1.3c0-0.7,0.1-1.3,0.4-1.9s0.6-1,1.1-1.3c0.4-0.3,0.9-0.4,1.4-0.4c0.6,0,1.1,0.2,1.5,0.6
				c0.4,0.4,0.6,1,0.6,1.7c0,0.3,0,0.6-0.1,0.9h-4c0,0.1,0,0.2,0,0.3c0,0.5,0.1,0.9,0.4,1.2c0.2,0.3,0.5,0.4,0.8,0.4
				c0.3,0,0.6-0.1,0.9-0.3C98.5,48.4,98.7,48.1,98.9,47.7z M96.2,46.3h3v-0.2c0-0.5-0.1-0.9-0.3-1.2c-0.2-0.3-0.5-0.4-0.9-0.4
				c-0.4,0-0.7,0.1-1.1,0.4C96.6,45.3,96.4,45.7,96.2,46.3z"/>
			<path class="st1" d="M104.4,47.5l0.9,0.1c-0.2,0.7-0.6,1.2-1,1.6c-0.4,0.3-0.9,0.5-1.4,0.5c-0.6,0-1-0.2-1.4-0.6s-0.6-1-0.6-1.7
				c0-0.7,0.1-1.4,0.4-2c0.3-0.6,0.6-1,1-1.3c0.4-0.3,0.9-0.4,1.4-0.4c0.5,0,1,0.2,1.3,0.5c0.3,0.3,0.5,0.8,0.5,1.4l-0.9,0.1
				c0-0.4-0.1-0.7-0.3-0.9c-0.2-0.2-0.4-0.3-0.7-0.3c-0.3,0-0.6,0.1-0.9,0.3c-0.3,0.2-0.5,0.5-0.7,1c-0.2,0.5-0.3,1.1-0.3,1.7
				c0,0.5,0.1,0.8,0.3,1c0.2,0.2,0.5,0.4,0.7,0.4c0.3,0,0.6-0.1,0.9-0.4S104.2,48,104.4,47.5z"/>
			<path class="st1" d="M107.9,48.8l-0.2,0.8c-0.2,0.1-0.4,0.1-0.6,0.1c-0.3,0-0.6-0.1-0.8-0.2c-0.2-0.2-0.3-0.4-0.3-0.6
				c0-0.1,0-0.4,0.1-0.9l0.6-3.3h-0.7l0.1-0.8h0.7l0.3-1.4l1-0.7l-0.4,2h0.9l-0.1,0.8h-0.9l-0.6,3.2c-0.1,0.4-0.1,0.6-0.1,0.7
				c0,0.1,0,0.2,0.1,0.3c0.1,0.1,0.2,0.1,0.3,0.1C107.6,48.9,107.7,48.9,107.9,48.8z"/>
			<path class="st1" d="M108.7,49.6l1.1-5.7h0.9l-1.1,5.7H108.7z M110,42.8l0.2-1.1h0.9l-0.2,1.1H110z"/>
			<path class="st1" d="M111,49.6l1.1-5.7h0.8l-0.2,1c0.4-0.4,0.7-0.7,1.1-0.9c0.3-0.2,0.6-0.2,0.9-0.2c0.4,0,0.8,0.1,1,0.4
				s0.4,0.6,0.4,1c0,0.2,0,0.5-0.1,1l-0.7,3.5h-0.9l0.8-3.6c0.1-0.4,0.1-0.6,0.1-0.8c0-0.2-0.1-0.4-0.2-0.5
				c-0.1-0.1-0.3-0.2-0.5-0.2c-0.5,0-0.9,0.2-1.3,0.5c-0.4,0.4-0.6,1-0.8,1.9l-0.5,2.7H111z"/>
			<path class="st1" d="M116.7,50.1l0.9,0.1v0.1c0,0.2,0.1,0.4,0.2,0.6c0.2,0.1,0.4,0.2,0.7,0.2c0.5,0,0.9-0.1,1.2-0.4
				c0.2-0.2,0.3-0.7,0.5-1.4l0.1-0.5c-0.5,0.5-1,0.8-1.5,0.8c-0.5,0-1-0.2-1.3-0.6s-0.6-1-0.6-1.8c0-0.6,0.1-1.2,0.4-1.8
				s0.6-1,1-1.2c0.4-0.3,0.8-0.4,1.2-0.4c0.7,0,1.2,0.4,1.6,1.1l0.2-0.9h0.8l-1,5.5c-0.2,0.8-0.4,1.4-0.7,1.8
				c-0.4,0.5-1,0.7-1.7,0.7c-0.7,0-1.2-0.1-1.5-0.4s-0.5-0.6-0.5-1.1C116.7,50.3,116.7,50.2,116.7,50.1z M117.9,47.1
				c0,0.4,0.1,0.8,0.2,1c0.1,0.2,0.2,0.4,0.4,0.5c0.2,0.1,0.4,0.2,0.6,0.2c0.3,0,0.5-0.1,0.8-0.3s0.5-0.5,0.7-1s0.3-0.9,0.3-1.4
				c0-0.5-0.1-0.9-0.4-1.1c-0.2-0.3-0.5-0.4-0.9-0.4c-0.3,0-0.6,0.1-0.8,0.3c-0.3,0.2-0.5,0.6-0.7,1
				C117.9,46.4,117.9,46.8,117.9,47.1z"/>
			<path class="st1" d="M127.4,48.8l-0.2,0.8c-0.2,0.1-0.4,0.1-0.6,0.1c-0.3,0-0.6-0.1-0.8-0.2c-0.2-0.2-0.3-0.4-0.3-0.6
				c0-0.1,0-0.4,0.1-0.9l0.6-3.3h-0.7l0.1-0.8h0.7l0.3-1.4l1-0.7l-0.4,2h0.9l-0.1,0.8h-0.9l-0.6,3.2c-0.1,0.4-0.1,0.6-0.1,0.7
				c0,0.1,0,0.2,0.1,0.3c0.1,0.1,0.2,0.1,0.3,0.1C127.1,48.9,127.3,48.9,127.4,48.8z"/>
			<path class="st1" d="M128.3,49.6l1.5-7.9h0.9l-0.6,3c0.4-0.4,0.7-0.6,1-0.8c0.3-0.1,0.6-0.2,0.9-0.2c0.4,0,0.8,0.1,1,0.4
				c0.3,0.2,0.4,0.6,0.4,1c0,0.2-0.1,0.6-0.2,1.1l-0.7,3.4h-0.9l0.7-3.5c0.1-0.5,0.2-0.8,0.2-0.9c0-0.2-0.1-0.3-0.2-0.5
				c-0.1-0.1-0.3-0.2-0.5-0.2c-0.3,0-0.6,0.1-0.9,0.3c-0.3,0.2-0.5,0.4-0.7,0.7c-0.2,0.3-0.3,0.9-0.5,1.6l-0.5,2.5H128.3z"/>
			<path class="st1" d="M137.9,47.7l0.9,0.1c-0.1,0.6-0.5,1-1,1.5c-0.4,0.3-0.9,0.5-1.5,0.5c-0.4,0-0.7-0.1-1.1-0.3
				c-0.3-0.2-0.6-0.5-0.8-0.8c-0.2-0.4-0.3-0.8-0.3-1.3c0-0.7,0.1-1.3,0.4-1.9s0.6-1,1.1-1.3c0.4-0.3,0.9-0.4,1.4-0.4
				c0.6,0,1.1,0.2,1.5,0.6c0.4,0.4,0.6,1,0.6,1.7c0,0.3,0,0.6-0.1,0.9h-4c0,0.1,0,0.2,0,0.3c0,0.5,0.1,0.9,0.4,1.2
				c0.2,0.3,0.5,0.4,0.8,0.4c0.3,0,0.6-0.1,0.9-0.3C137.5,48.4,137.8,48.1,137.9,47.7z M135.3,46.3h3v-0.2c0-0.5-0.1-0.9-0.3-1.2
				c-0.2-0.3-0.5-0.4-0.9-0.4c-0.4,0-0.7,0.1-1.1,0.4C135.7,45.3,135.4,45.7,135.3,46.3z"/>
			<path class="st1" d="M142.7,49.6l1.5-7.9h1l-0.6,3.3h3.8l0.6-3.3h1l-1.5,7.9h-1l0.7-3.7h-3.8l-0.7,3.7H142.7z"/>
			<path class="st1" d="M154,47.7l0.9,0.1c-0.1,0.6-0.5,1-1,1.5c-0.4,0.3-0.9,0.5-1.5,0.5c-0.4,0-0.7-0.1-1.1-0.3
				c-0.3-0.2-0.6-0.5-0.8-0.8c-0.2-0.4-0.3-0.8-0.3-1.3c0-0.7,0.1-1.3,0.4-1.9s0.6-1,1.1-1.3c0.4-0.3,0.9-0.4,1.4-0.4
				c0.6,0,1.1,0.2,1.5,0.6c0.4,0.4,0.6,1,0.6,1.7c0,0.3,0,0.6-0.1,0.9h-4c0,0.1,0,0.2,0,0.3c0,0.5,0.1,0.9,0.4,1.2s0.5,0.4,0.8,0.4
				c0.3,0,0.6-0.1,0.9-0.3C153.6,48.4,153.9,48.1,154,47.7z M151.4,46.3h3v-0.2c0-0.5-0.1-0.9-0.3-1.2c-0.2-0.3-0.5-0.4-0.9-0.4
				c-0.4,0-0.7,0.1-1.1,0.4C151.8,45.3,151.5,45.7,151.4,46.3z"/>
			<path class="st1" d="M159.4,48.9c-0.3,0.3-0.7,0.5-0.9,0.7c-0.3,0.1-0.6,0.2-0.9,0.2c-0.5,0-0.9-0.1-1.2-0.4
				c-0.3-0.3-0.5-0.7-0.5-1.2c0-0.4,0.1-0.7,0.3-1s0.4-0.5,0.8-0.6c0.3-0.1,0.8-0.2,1.4-0.3c0.5,0,0.9-0.1,1.1-0.1s0.4-0.1,0.5-0.1
				c0.1-0.3,0.1-0.5,0.1-0.7c0-0.2-0.1-0.4-0.3-0.6c-0.2-0.1-0.5-0.2-0.9-0.2c-0.8,0-1.3,0.3-1.5,1l-0.9-0.1
				c0.4-1.2,1.2-1.8,2.5-1.8c0.6,0,1.1,0.1,1.5,0.4c0.4,0.3,0.6,0.7,0.6,1.1c0,0.3,0,0.7-0.1,1.1l-0.4,1.4c-0.1,0.5-0.2,0.8-0.2,1.1
				c0,0.2,0,0.4,0.1,0.8h-0.9C159.5,49.4,159.5,49.2,159.4,48.9z M159.9,46.7c-0.2,0.1-0.6,0.2-1.2,0.2c-0.6,0.1-0.9,0.1-1.2,0.2
				c-0.2,0.1-0.4,0.2-0.5,0.4c-0.1,0.2-0.2,0.3-0.2,0.6c0,0.3,0.1,0.5,0.3,0.7c0.2,0.2,0.4,0.3,0.7,0.3c0.3,0,0.6-0.1,0.9-0.2
				c0.3-0.2,0.5-0.4,0.7-0.7S159.7,47.3,159.9,46.7z"/>
			<path class="st1" d="M161.5,49.6l1.5-7.9h0.9l-1.5,7.9H161.5z"/>
			<path class="st1" d="M165.9,48.8l-0.2,0.8c-0.2,0.1-0.4,0.1-0.6,0.1c-0.3,0-0.6-0.1-0.8-0.2c-0.2-0.2-0.3-0.4-0.3-0.6
				c0-0.1,0-0.4,0.1-0.9l0.6-3.3h-0.7l0.1-0.8h0.7l0.3-1.4l1-0.7l-0.4,2h0.9l-0.1,0.8h-0.9l-0.6,3.2c-0.1,0.4-0.1,0.6-0.1,0.7
				c0,0.1,0,0.2,0.1,0.3c0.1,0.1,0.2,0.1,0.3,0.1C165.6,48.9,165.8,48.9,165.9,48.8z"/>
			<path class="st1" d="M166.7,49.6l1.5-7.9h0.9l-0.6,3c0.4-0.4,0.7-0.6,1-0.8c0.3-0.1,0.6-0.2,0.9-0.2c0.4,0,0.8,0.1,1,0.4
				c0.3,0.2,0.4,0.6,0.4,1c0,0.2-0.1,0.6-0.2,1.1l-0.7,3.4h-0.9l0.7-3.5c0.1-0.5,0.2-0.8,0.2-0.9c0-0.2-0.1-0.3-0.2-0.5
				c-0.1-0.1-0.3-0.2-0.5-0.2c-0.3,0-0.6,0.1-0.9,0.3c-0.3,0.2-0.5,0.4-0.7,0.7c-0.2,0.3-0.3,0.9-0.5,1.6l-0.5,2.5H166.7z"/>
			<path class="st1" d="M176.2,47.5l0.9,0.1c-0.2,0.7-0.6,1.2-1,1.6c-0.4,0.3-0.9,0.5-1.4,0.5c-0.6,0-1-0.2-1.4-0.6s-0.6-1-0.6-1.7
				c0-0.7,0.1-1.4,0.4-2c0.3-0.6,0.6-1,1-1.3c0.4-0.3,0.9-0.4,1.4-0.4c0.5,0,1,0.2,1.3,0.5c0.3,0.3,0.5,0.8,0.5,1.4l-0.9,0.1
				c0-0.4-0.1-0.7-0.3-0.9s-0.4-0.3-0.7-0.3c-0.3,0-0.6,0.1-0.9,0.3c-0.3,0.2-0.5,0.5-0.7,1s-0.3,1.1-0.3,1.7c0,0.5,0.1,0.8,0.3,1
				c0.2,0.2,0.5,0.4,0.7,0.4c0.3,0,0.6-0.1,0.9-0.4C175.8,48.4,176,48,176.2,47.5z"/>
			<path class="st1" d="M181.3,48.9c-0.3,0.3-0.7,0.5-0.9,0.7c-0.3,0.1-0.6,0.2-0.9,0.2c-0.5,0-0.9-0.1-1.2-0.4
				c-0.3-0.3-0.5-0.7-0.5-1.2c0-0.4,0.1-0.7,0.3-1s0.4-0.5,0.8-0.6c0.3-0.1,0.8-0.2,1.4-0.3c0.5,0,0.9-0.1,1.1-0.1s0.4-0.1,0.5-0.1
				c0.1-0.3,0.1-0.5,0.1-0.7c0-0.2-0.1-0.4-0.3-0.6c-0.2-0.1-0.5-0.2-0.9-0.2c-0.8,0-1.3,0.3-1.5,1l-0.9-0.1
				c0.4-1.2,1.2-1.8,2.5-1.8c0.6,0,1.1,0.1,1.5,0.4c0.4,0.3,0.6,0.7,0.6,1.1c0,0.3,0,0.7-0.1,1.1l-0.4,1.4c-0.1,0.5-0.2,0.8-0.2,1.1
				c0,0.2,0,0.4,0.1,0.8h-0.9C181.3,49.4,181.3,49.2,181.3,48.9z M181.7,46.7c-0.2,0.1-0.6,0.2-1.2,0.2c-0.6,0.1-0.9,0.1-1.2,0.2
				c-0.2,0.1-0.4,0.2-0.5,0.4c-0.1,0.2-0.2,0.3-0.2,0.6c0,0.3,0.1,0.5,0.3,0.7c0.2,0.2,0.4,0.3,0.7,0.3c0.3,0,0.6-0.1,0.9-0.2
				c0.3-0.2,0.5-0.4,0.7-0.7S181.6,47.3,181.7,46.7z"/>
			<path class="st1" d="M183.4,49.6l1.1-5.7h0.8l-0.2,1.2c0.5-0.9,1.1-1.3,1.6-1.3c0.2,0,0.4,0.1,0.7,0.2l-0.4,0.9
				c-0.2-0.1-0.3-0.2-0.5-0.2c-0.3,0-0.7,0.2-1,0.6c-0.3,0.4-0.6,1.1-0.8,2l-0.5,2.3H183.4z"/>
			<path class="st1" d="M190.8,47.7l0.9,0.1c-0.1,0.6-0.5,1-1,1.5c-0.4,0.3-0.9,0.5-1.5,0.5c-0.4,0-0.7-0.1-1.1-0.3
				c-0.3-0.2-0.6-0.5-0.8-0.8c-0.2-0.4-0.3-0.8-0.3-1.3c0-0.7,0.1-1.3,0.4-1.9s0.6-1,1.1-1.3c0.4-0.3,0.9-0.4,1.4-0.4
				c0.6,0,1.1,0.2,1.5,0.6c0.4,0.4,0.6,1,0.6,1.7c0,0.3,0,0.6-0.1,0.9h-4c0,0.1,0,0.2,0,0.3c0,0.5,0.1,0.9,0.4,1.2s0.5,0.4,0.8,0.4
				c0.3,0,0.6-0.1,0.9-0.3C190.4,48.4,190.6,48.1,190.8,47.7z M188.1,46.3h3v-0.2c0-0.5-0.1-0.9-0.3-1.2c-0.2-0.3-0.5-0.4-0.9-0.4
				c-0.4,0-0.7,0.1-1.1,0.4C188.5,45.3,188.3,45.7,188.1,46.3z"/>
			<path class="st1" d="M201.4,46.8l1,0.1c-0.3,0.9-0.8,1.6-1.4,2.1c-0.6,0.5-1.3,0.7-2,0.7c-0.9,0-1.6-0.3-2.1-0.9
				s-0.8-1.4-0.8-2.5c0-1.3,0.3-2.4,1-3.3c0.7-1,1.7-1.5,2.8-1.5c0.7,0,1.4,0.2,1.9,0.7c0.5,0.4,0.8,1,0.9,1.8l-0.9,0.1
				c-0.2-1.1-0.8-1.7-1.8-1.7c-0.9,0-1.6,0.4-2.1,1.2s-0.8,1.7-0.8,2.8c0,0.8,0.2,1.4,0.6,1.9s0.9,0.6,1.4,0.6
				c0.5,0,0.9-0.2,1.3-0.5C200.9,48,201.2,47.5,201.4,46.8z"/>
			<path class="st1" d="M203.1,47.5c0-1,0.3-1.9,0.8-2.6c0.5-0.7,1.2-1.1,2.1-1.1c0.6,0,1.1,0.2,1.5,0.6c0.4,0.4,0.6,1,0.6,1.8
				c0,0.7-0.1,1.3-0.4,1.9c-0.3,0.6-0.6,1-1.1,1.3s-0.9,0.4-1.4,0.4c-0.6,0-1.2-0.2-1.6-0.6C203.3,48.7,203.1,48.2,203.1,47.5z
				 M204,47.4c0,0.5,0.1,1,0.4,1.2c0.2,0.3,0.6,0.4,0.9,0.4c0.3,0,0.6-0.1,0.9-0.3c0.3-0.2,0.5-0.5,0.8-1c0.2-0.5,0.3-1,0.3-1.5
				c0-0.5-0.1-1-0.4-1.2c-0.2-0.3-0.5-0.4-0.9-0.4c-0.3,0-0.6,0.1-0.9,0.3c-0.3,0.2-0.5,0.5-0.8,1C204.1,46.3,204,46.8,204,47.4z"/>
			<path class="st1" d="M208.7,49.6l1.1-5.7h0.9l-0.2,0.9c0.4-0.4,0.7-0.7,0.9-0.9c0.3-0.1,0.6-0.2,0.9-0.2c0.3,0,0.6,0.1,0.8,0.3
				c0.2,0.2,0.4,0.4,0.5,0.8c0.3-0.4,0.6-0.6,0.9-0.8c0.3-0.2,0.6-0.3,1-0.3c0.4,0,0.8,0.1,1,0.3c0.2,0.2,0.4,0.5,0.4,1
				c0,0.2,0,0.5-0.1,0.9l-0.8,3.7H215l0.8-3.8c0.1-0.3,0.1-0.5,0.1-0.7c0-0.2-0.1-0.3-0.2-0.4c-0.1-0.1-0.3-0.2-0.5-0.2
				c-0.3,0-0.5,0.1-0.8,0.2c-0.3,0.2-0.5,0.4-0.7,0.7s-0.3,0.7-0.4,1.4l-0.6,2.8h-0.9l0.8-3.9c0.1-0.3,0.1-0.5,0.1-0.6
				c0-0.2-0.1-0.3-0.2-0.5s-0.3-0.2-0.4-0.2c-0.4,0-0.8,0.2-1.2,0.5c-0.4,0.4-0.6,1-0.8,1.8l-0.5,2.7H208.7z"/>
			<path class="st1" d="M217.3,49.6l1.1-5.7h0.9l-0.2,0.9c0.4-0.4,0.7-0.7,0.9-0.9c0.3-0.1,0.6-0.2,0.9-0.2c0.3,0,0.6,0.1,0.8,0.3
				c0.2,0.2,0.4,0.4,0.5,0.8c0.3-0.4,0.6-0.6,0.9-0.8s0.6-0.3,1-0.3c0.4,0,0.8,0.1,1,0.3c0.2,0.2,0.4,0.5,0.4,1c0,0.2,0,0.5-0.1,0.9
				l-0.8,3.7h-0.9l0.8-3.8c0.1-0.3,0.1-0.5,0.1-0.7c0-0.2-0.1-0.3-0.2-0.4c-0.1-0.1-0.3-0.2-0.5-0.2c-0.3,0-0.5,0.1-0.8,0.2
				c-0.3,0.2-0.5,0.4-0.7,0.7c-0.2,0.3-0.3,0.7-0.4,1.4l-0.6,2.8h-0.9l0.8-3.9c0.1-0.3,0.1-0.5,0.1-0.6c0-0.2-0.1-0.3-0.2-0.5
				c-0.1-0.1-0.3-0.2-0.4-0.2c-0.4,0-0.8,0.2-1.2,0.5c-0.4,0.4-0.6,1-0.8,1.8l-0.5,2.7H217.3z"/>
			<path class="st1" d="M229.5,48.6c-0.6,0.8-1.3,1.2-2,1.2c-0.4,0-0.7-0.1-1-0.4s-0.4-0.6-0.4-0.9c0-0.2,0.1-0.7,0.2-1.2l0.6-3.3
				h0.9l-0.7,3.7c-0.1,0.3-0.1,0.5-0.1,0.7c0,0.2,0.1,0.4,0.2,0.5c0.1,0.1,0.3,0.2,0.5,0.2c0.3,0,0.6-0.1,1-0.3s0.6-0.5,0.7-0.9
				c0.1-0.3,0.3-0.8,0.4-1.4l0.5-2.5h0.9l-1.2,5.7h-0.8L229.5,48.6z"/>
			<path class="st1" d="M231.6,49.6l1.1-5.7h0.8l-0.2,1c0.4-0.4,0.7-0.7,1.1-0.9c0.3-0.2,0.6-0.2,0.9-0.2c0.4,0,0.8,0.1,1,0.4
				c0.3,0.2,0.4,0.6,0.4,1c0,0.2,0,0.5-0.1,1l-0.7,3.5H235l0.8-3.6c0.1-0.4,0.1-0.6,0.1-0.8c0-0.2-0.1-0.4-0.2-0.5
				c-0.1-0.1-0.3-0.2-0.5-0.2c-0.5,0-0.9,0.2-1.3,0.5c-0.4,0.4-0.6,1-0.8,1.9l-0.5,2.7H231.6z"/>
			<path class="st1" d="M237.4,49.6l1.1-5.7h0.9l-1.1,5.7H237.4z M238.7,42.8l0.2-1.1h0.9l-0.2,1.1H238.7z"/>
			<path class="st1" d="M241.7,48.8l-0.2,0.8c-0.2,0.1-0.4,0.1-0.6,0.1c-0.3,0-0.6-0.1-0.8-0.2c-0.2-0.2-0.3-0.4-0.3-0.6
				c0-0.1,0-0.4,0.1-0.9l0.6-3.3h-0.7l0.1-0.8h0.7l0.3-1.4l1-0.7l-0.4,2h0.9l-0.1,0.8h-0.9l-0.6,3.2c-0.1,0.4-0.1,0.6-0.1,0.7
				c0,0.1,0,0.2,0.1,0.3c0.1,0.1,0.2,0.1,0.3,0.1C241.4,48.9,241.6,48.9,241.7,48.8z"/>
			<path class="st1" d="M242.2,51.8l0.1-0.9c0.2,0.1,0.4,0.1,0.5,0.1c0.2,0,0.3,0,0.4-0.1c0.2-0.1,0.3-0.3,0.5-0.7l0.3-0.6l-0.9-5.7
				h0.9l0.4,2.9c0.1,0.6,0.2,1.2,0.2,1.7l2.4-4.6h1l-3.4,6.5c-0.3,0.7-0.6,1.1-0.9,1.3c-0.3,0.2-0.5,0.3-0.9,0.3
				C242.6,51.9,242.4,51.9,242.2,51.8z"/>
		</g>
		<g class="st0">
			<path class="st2" d="M72.9,33.4V5.5h10.5c1.8,0,3.3,0.1,4.2,0.3C89,6,90.2,6.5,91.1,7.1c0.9,0.6,1.7,1.5,2.2,2.7s0.8,2.4,0.8,3.8
				c0,2.4-0.8,4.4-2.3,6c-1.5,1.6-4.2,2.5-8.2,2.5h-7.1v11.3H72.9z M76.6,18.8h7.2c2.4,0,4.1-0.4,5.1-1.3c1-0.9,1.5-2.1,1.5-3.7
				c0-1.2-0.3-2.2-0.9-3c-0.6-0.8-1.4-1.4-2.3-1.6c-0.6-0.2-1.8-0.2-3.4-0.2h-7.1V18.8z"/>
			<path class="st2" d="M111.6,30.9c-1.3,1.1-2.5,1.8-3.7,2.3c-1.2,0.4-2.4,0.7-3.8,0.7c-2.2,0-3.9-0.5-5.1-1.6
				c-1.2-1.1-1.8-2.5-1.8-4.2c0-1,0.2-1.9,0.7-2.7c0.4-0.8,1-1.5,1.8-2s1.5-0.9,2.5-1.1c0.7-0.2,1.7-0.3,3-0.5
				c2.8-0.3,4.8-0.7,6.1-1.2c0-0.5,0-0.8,0-0.9c0-1.4-0.3-2.4-1-2.9c-0.9-0.8-2.2-1.2-3.9-1.2c-1.6,0-2.8,0.3-3.6,0.8
				c-0.8,0.6-1.3,1.6-1.7,3L97.8,19c0.3-1.4,0.8-2.6,1.5-3.5c0.7-0.9,1.7-1.6,3-2s2.8-0.7,4.6-0.7c1.7,0,3.1,0.2,4.2,0.6
				c1.1,0.4,1.9,0.9,2.4,1.5c0.5,0.6,0.9,1.4,1.1,2.3c0.1,0.6,0.2,1.6,0.2,3.2v4.6c0,3.2,0.1,5.2,0.2,6s0.4,1.7,0.9,2.4h-3.6
				C111.9,32.7,111.7,31.9,111.6,30.9z M111.3,23.3c-1.2,0.5-3.1,0.9-5.6,1.3c-1.4,0.2-2.4,0.4-3,0.7c-0.6,0.3-1,0.6-1.3,1.1
				c-0.3,0.5-0.5,1-0.5,1.6c0,0.9,0.3,1.7,1,2.3c0.7,0.6,1.7,0.9,3,0.9c1.3,0,2.5-0.3,3.5-0.9c1-0.6,1.8-1.4,2.3-2.4
				c0.4-0.8,0.6-1.9,0.6-3.4V23.3z"/>
			<path class="st2" d="M127.5,30.3l0.5,3c-1,0.2-1.8,0.3-2.6,0.3c-1.2,0-2.2-0.2-2.9-0.6c-0.7-0.4-1.2-0.9-1.4-1.5
				c-0.3-0.6-0.4-2-0.4-4V15.9h-2.5v-2.7h2.5v-5l3.4-2.1v7.1h3.4v2.7h-3.4v11.8c0,1,0.1,1.6,0.2,1.9c0.1,0.3,0.3,0.5,0.6,0.7
				c0.3,0.2,0.7,0.2,1.2,0.2C126.4,30.5,126.9,30.4,127.5,30.3z"/>
			<path class="st2" d="M130.9,9.5V5.5h3.4v3.9H130.9z M130.9,33.4V13.2h3.4v20.2H130.9z"/>
			<path class="st2" d="M153.3,26.9l3.5,0.4c-0.6,2.1-1.6,3.7-3.1,4.8c-1.5,1.1-3.4,1.7-5.8,1.7c-3,0-5.3-0.9-7-2.7
				c-1.7-1.8-2.6-4.4-2.6-7.6c0-3.4,0.9-6,2.6-7.9c1.7-1.9,4-2.8,6.8-2.8c2.7,0,4.9,0.9,6.6,2.8c1.7,1.8,2.6,4.4,2.6,7.8
				c0,0.2,0,0.5,0,0.9h-15c0.1,2.2,0.8,3.9,1.9,5.1c1.1,1.2,2.5,1.8,4.2,1.8c1.3,0,2.3-0.3,3.2-1C152.1,29.4,152.8,28.3,153.3,26.9z
				 M142.1,21.4h11.3c-0.2-1.7-0.6-3-1.3-3.8c-1.1-1.3-2.5-2-4.2-2c-1.6,0-2.9,0.5-4,1.6C142.8,18.2,142.2,19.6,142.1,21.4z"/>
			<path class="st2" d="M161.1,33.4V13.2h3.1v2.9c1.5-2.2,3.6-3.3,6.4-3.3c1.2,0,2.3,0.2,3.4,0.7c1,0.4,1.8,1,2.3,1.7
				s0.9,1.6,1.1,2.5c0.1,0.6,0.2,1.7,0.2,3.3v12.4h-3.4V21.1c0-1.4-0.1-2.4-0.4-3.1c-0.3-0.7-0.7-1.2-1.4-1.7
				c-0.7-0.4-1.5-0.6-2.4-0.6c-1.5,0-2.7,0.5-3.8,1.4c-1.1,0.9-1.6,2.7-1.6,5.3v11H161.1z"/>
			<path class="st2" d="M190.2,30.3l0.5,3c-1,0.2-1.8,0.3-2.6,0.3c-1.2,0-2.2-0.2-2.9-0.6c-0.7-0.4-1.2-0.9-1.4-1.5
				c-0.3-0.6-0.4-2-0.4-4V15.9h-2.5v-2.7h2.5v-5l3.4-2.1v7.1h3.4v2.7h-3.4v11.8c0,1,0.1,1.6,0.2,1.9c0.1,0.3,0.3,0.5,0.6,0.7
				c0.3,0.2,0.7,0.2,1.2,0.2C189.1,30.5,189.6,30.4,190.2,30.3z"/>
		</g>
		<g class="st0">
			<path class="st3" d="M193.9,33.4V5.5h5.5l6.6,19.7c0.6,1.8,1.1,3.2,1.3,4.1c0.3-1,0.8-2.5,1.5-4.5l6.7-19.4h5v27.9h-3.6V10.1
				l-8.1,23.3h-3.3l-8.1-23.7v23.7H193.9z"/>
			<path class="st3" d="M226.4,33.4V5.5h9.6c2.2,0,3.8,0.1,5,0.4c1.6,0.4,3,1,4.1,2c1.5,1.2,2.6,2.8,3.3,4.8
				c0.7,1.9,1.1,4.1,1.1,6.6c0,2.1-0.2,4-0.7,5.6c-0.5,1.6-1.1,3-1.9,4.1c-0.8,1.1-1.6,1.9-2.5,2.5c-0.9,0.6-2,1.1-3.3,1.4
				c-1.3,0.3-2.8,0.5-4.5,0.5H226.4z M230.1,30.1h5.9c1.8,0,3.3-0.2,4.3-0.5c1-0.3,1.9-0.8,2.5-1.4c0.9-0.9,1.6-2,2-3.5
				c0.5-1.5,0.7-3.3,0.7-5.4c0-2.9-0.5-5.2-1.4-6.7c-1-1.6-2.1-2.6-3.5-3.1c-1-0.4-2.6-0.6-4.8-0.6h-5.8V30.1z"/>
		</g>
		<g class="st0">
			<path class="st3" d="M251.6,11.1V6.5h-1.7V5.8h4v0.6h-1.7v4.6H251.6z"/>
			<path class="st3" d="M254.5,11.1V5.8h1l1.2,3.7c0.1,0.3,0.2,0.6,0.2,0.8c0.1-0.2,0.1-0.5,0.3-0.8l1.2-3.7h0.9v5.3h-0.6V6.7
				l-1.5,4.4h-0.6l-1.4-4.5v4.5H254.5z"/>
		</g>
	</g>
	<g>
		<g>
			<path class="st3" d="M11.2,24.3h44.4l3.2,3.3H8.1L11.2,24.3z M8.1,30.3h50.7l-3.2,3.3H11.2L8.1,30.3z M17,18.2h32.9l3.1,3.3H13.9
				L17,18.2z M49.9,39.6H17l-3.1-3.3H53L49.9,39.6z M19.6,15.5L33.5,1l13.8,14.5H19.6z M47.3,42.4L33.5,56.9L19.6,42.4H47.3z"/>
		</g>
		<g>
			<path class="st2" d="M49.7,50.8c0.2,0.5,0.2,0.9,0,1.1c-0.2,0.2-0.6,0.2-1.1-0.1L33.5,37.9L18.3,51.8c-0.5,0.3-0.9,0.3-1.1,0.1
				s-0.2-0.6,0-1.1l9-16.8c1.7-3.2,3.2-5.5,4.2-6.9c0-1.2-0.2-2.2-0.7-3.1c-0.2-0.4-0.7-1.1-1.4-1.9c-0.7-0.8-1.5-1.7-2.3-2.6
				s-1.6-1.8-2.4-2.6c-0.8-0.8-1.3-1.5-1.7-1.9c-0.8-0.9-1.8-2.2-3.1-3.9c-0.2-0.5-0.2-0.9,0-1.1c0.2-0.2,0.6-0.3,1-0.1L33,17.1
				l0.4,0.1l0.4-0.1l13.3-7.2c0.4-0.1,0.8-0.1,1,0.1c0.2,0.2,0.2,0.6,0,1.1c-1.3,1.7-2.3,3-3.1,3.9c-0.4,0.4-1,1.1-1.7,1.9
				c-0.8,0.8-1.6,1.7-2.4,2.6c-0.8,0.9-1.6,1.8-2.3,2.6c-0.7,0.8-1.2,1.4-1.4,1.9c-0.5,0.9-0.8,1.9-0.8,3.1c1.1,1.4,2.5,3.7,4.2,6.9
				L49.7,50.8z M36.4,10.5c0-0.8-0.3-1.6-0.9-2.2c-0.6-0.6-1.3-0.9-2.1-0.9s-1.5,0.3-2.1,0.9s-0.9,1.3-0.9,2.2s0.3,1.6,0.9,2.2
				c0.6,0.6,1.3,0.9,2.1,0.9s1.5-0.3,2.1-0.9S36.4,11.3,36.4,10.5z"/>
		</g>
	</g>
</g>
</svg>
